# Created by MKDS Course Modifier
mtllib Jubilife City Building 2.mtl
g polygon0
usemtl c1_b01_4_lm1
v -23 32 28.44922
v 23 32 28.44922
v 23 57 28.44922
v -23 57 28.44922
v -23 57 28.44922
v 23 57 28.44922
v 23 79 28.44922
v -23 79 28.44922
v -23 9 28.44922
v 23 9 28.44922
v 23 32 28.44922
v -23 32 28.44922
vn 0 0 0.9980469
vn 0 0 0.9980469
vn 0 0 0.9980469
vn 0 0 0.9980469
vn 0 0 0.9980469
vn 0 0 0.9980469
vn 0 0 0.9980469
vn 0 0 0.9980469
vn 0 0 0.9980469
vn 0 0 0.9980469
vn 0 0 0.9980469
vn 0 0 0.9980469
vt -1 -1
vt 1 -1
vt 1 0
vt -1 0
vt -1 -1
vt 1 -1
vt 1 0
vt -1 0
vt -1 -1
vt 1 -1
vt 1 0
vt -1 0
f 1/1/1 2/2/2 3/3/3 4/4/4
f 5/5/5 6/6/6 7/7/7 8/8/8
f 9/9/9 10/10/10 11/11/11 12/12/12
g polygon1
usemtl h_kage_lm1
v 23.75 93 -30
v 23.75 93 -35
v -19 93 -30
v -24 93 -35
v -19 93 27
v -24 93 27
vn 0 0.9980469 0
vn 0 0.9980469 0
vn 0 0.9980469 0
vn 0 0.9980469 0
vn 0 0.9980469 0
vn 0 0.9980469 0
vt 0.5 1
vt 0 1
vt 0.5 0.5
vt 0 0.5
vt 0.5 0
vt 0 0
f 13/13/13 14/14/14 15/15/15
f 14/14/14 16/16/16 15/15/15
f 15/15/15 16/16/16 17/17/17
f 16/16/16 18/18/18 17/17/17
v 29.75 0.8984375 43.25
v 38.75 0.8984375 43.25
v 29.75 0.8984375 34.05078
v 38.75 0.8984375 34.05078
v 29.75 0.8984375 -42.53125
v 38.75 0.8984375 -33.53125
vn 0 0.9980469 0
vn 0 0.9980469 0
vn 0 0.9980469 0
vn 0 0.9980469 0
vn 0 0.9980469 0
vn 0 0.9980469 0
vt 1 0.5
vt 1 1
vt 0.5 0.5
vt 0.5 1
vt 0 0.5
vt 0 1
f 19/19/19 20/20/20 21/21/21
f 20/20/20 22/22/22 21/21/21
f 21/21/21 22/22/22 23/23/23
f 22/22/22 24/24/24 23/23/23
v -24 0.8984375 43.25
v 29.75 0.8984375 43.25
v -31 0.8984375 34.05078
v 29.75 0.8984375 34.05078
v -31 0.8984375 -42.53125
v 29.75 0.8984375 -42.53125
vn 0 0.9980469 0
vn 0 0.9980469 0
vn 0 0.9980469 0
vn 0 0.9980469 0
vn 0 0.9980469 0
vn 0 0.9980469 0
vt 1 0
vt 1 0.5
vt 0.5 0
vt 0.5 0.5
vt 0 0
vt 0 0.5
f 25/25/25 26/26/26 27/27/27
f 26/26/26 28/28/28 27/27/27
f 27/27/27 28/28/28 29/29/29
f 28/28/28 30/30/30 29/29/29
g polygon2
usemtl c1_b01_1_lm1
v 28.44922 79.94141 -32.63281
v 28.44922 79.94141 26.22656
v 28.44922 59 26.22656
v 28.44922 59 -32.63281
v -28.42578 79.94141 26.27344
v -28.42578 79.94141 -32.53125
v -28.42578 59 -32.53125
v -28.42578 59 26.27344
v -21.22656 10.80078 32.25
v 21.25 10.80078 32.25
v 21.25 34 32.25
v -21.22656 34 32.25
v -21.22656 59 32.25
v -21.22656 34 32.25
v 21.25 34 32.25
v 21.25 59 32.25
v -21.22656 59 32.25
v 21.25 59 32.25
v 21.25 79.94141 32.25
v -21.22656 79.94141 32.25
v 28.44922 34 26.22656
v 28.44922 10.80078 26.22656
v 28.44922 10.80078 -32.63281
v 28.44922 34 -32.63281
v 28.44922 59 26.22656
v 28.44922 34 26.22656
v 28.44922 34 -32.63281
v 28.44922 59 -32.63281
v -28.42578 34 -32.53125
v -28.42578 10.80078 -32.53125
v -28.42578 10.80078 26.27344
v -28.42578 34 26.27344
v -28.42578 59 -32.53125
v -28.42578 34 -32.53125
v -28.42578 34 26.27344
v -28.42578 59 26.27344
vn 0.9980469 0 0
vn 0.9980469 0 0
vn 0.9980469 0 0
vn 0.9980469 0 0
vn -1 0 0
vn -1 0 0
vn -1 0 0
vn -1 0 0
vn 0 0 0.9980469
vn 0 0 0.9980469
vn 0 0 0.9980469
vn 0 0 0.9980469
vn 0 0 0.9980469
vn 0 0 0.9980469
vn 0 0 0.9980469
vn 0 0 0.9980469
vn 0 0 0.9980469
vn 0 0 0.9980469
vn 0 0 0.9980469
vn 0 0 0.9980469
vn 0.9980469 0 0
vn 0.9980469 0 0
vn 0.9980469 0 0
vn 0.9980469 0 0
vn 0.9980469 0 0
vn 0.9980469 0 0
vn 0.9980469 0 0
vn 0.9980469 0 0
vn -1 0 0
vn -1 0 0
vn -1 0 0
vn -1 0 0
vn -1 0 0
vn -1 0 0
vn -1 0 0
vn -1 0 0
vt 1 -0.5
vt -1.5 -0.5
vt -1.5 -1
vt 1 -1
vt -1.5 -0.5
vt 1 -0.5
vt 1 -1
vt -1.5 -1
vt -1 -0.5
vt 1 -0.5
vt 1 0
vt -1 0
vt -1 0
vt -1 -0.5
vt 1 -0.5
vt 1 0
vt -1 -0.5
vt 1 -0.5
vt 1 0
vt -1 0
vt -1.5 -0.5
vt -1.5 -1
vt 1 -1
vt 1 -0.5
vt -1.5 -0.5
vt -1.5 -1
vt 1 -1
vt 1 -0.5
vt 1 -0.5
vt 1 -1
vt -1.5 -1
vt -1.5 -0.5
vt 1 -0.5
vt 1 -1
vt -1.5 -1
vt -1.5 -0.5
f 31/31/31 32/32/32 33/33/33 34/34/34
f 35/35/35 36/36/36 37/37/37 38/38/38
f 39/39/39 40/40/40 41/41/41 42/42/42
f 43/43/43 44/44/44 45/45/45 46/46/46
f 47/47/47 48/48/48 49/49/49 50/50/50
f 51/51/51 52/52/52 53/53/53 54/54/54
f 55/55/55 56/56/56 57/57/57 58/58/58
f 59/59/59 60/60/60 61/61/61 62/62/62
f 63/63/63 64/64/64 65/65/65 66/66/66
g polygon3
usemtl c1_b01_3_lm1
v -30 98 -40
v -23 98 -34
v 30 98 -40
v 23 98 -34
v 30 98 34
v 23 98 27
v -30 98 34
v -23 98 27
v -30 98 -40
v -23 98 -34
vn 0 0.9980469 0
vn 0 0.9980469 0
vn 0 0.9980469 0
vn 0 0.9980469 0
vn 0 0.9980469 0
vn 0 0.9980469 0
vn 0 0.9980469 0
vn 0 0.9980469 0
vn 0 0.9980469 0
vn 0 0.9980469 0
vt -0.6787109 -1.268555
vt -0.6689453 -1.273438
vt -0.5732422 -1.268555
vt -0.5820313 -1.273438
vt -0.5732422 -1.350586
vt -0.5820313 -1.344727
vt -0.6787109 -1.350586
vt -0.6689453 -1.344727
vt -0.6787109 -1.268555
vt -0.6689453 -1.273438
f 67/67/67 68/68/68 69/69/69
f 68/68/68 70/70/70 69/69/69
f 69/69/69 70/70/70 71/71/71
f 70/70/70 72/72/72 71/71/71
f 71/71/71 72/72/72 73/73/73
f 72/72/72 74/74/74 73/73/73
f 73/73/73 74/74/74 75/75/75
f 74/74/74 76/76/76 75/75/75
v 30.25 1.800781 -39.42969
v 30.25 11.29688 -39.42969
v 30.25 1.800781 -32.63281
v 30.25 11.29688 -32.63281
v 30.25 1.800781 26.22656
v 30.25 11.29688 26.22656
v 30.25 1.800781 34.05078
v 30.25 11.29688 34.05078
vn 0.9980469 0 0
vn 0.9980469 0 0
vn 0.9980469 0 0
vn 0.9980469 0 0
vn 0.9980469 0 0
vn 0.9980469 0 0
vn 0.9980469 0 0
vn 0.9980469 0 0
vt 0.078125 -0.3125
vt 0.078125 -0.3125
vt 0.078125 -0.3125
vt 0.078125 -0.3125
vt 0.078125 -0.3125
vt 0.078125 -0.3125
vt 0.078125 -0.3125
vt 0.078125 -0.3125
f 77/77/77 78/78/78 79/79/79
f 78/78/78 80/80/80 79/79/79
f 79/79/79 80/80/80 81/81/81
f 80/80/80 82/82/82 81/81/81
f 81/81/81 82/82/82 83/83/83
f 82/82/82 84/84/84 83/83/83
v -28.42578 10.80078 32.25
v -30.22656 11.29688 34.05078
v -21.22656 10.80078 32.25
v -21.22656 11.29688 34.05078
v 21.25 10.80078 32.25
v 21.25 11.29688 34.05078
v 28.44922 10.80078 32.25
v 30.25 11.29688 34.05078
vn 0 0.9648438 -0.265625
vn 0 0.9648438 -0.265625
vn 0 0.9648438 -0.265625
vn 0 0.9648438 -0.265625
vn 0 0.9648438 -0.265625
vn 0 0.9648438 -0.265625
vn 0 0.9648438 -0.265625
vn 0 0.9648438 -0.265625
vt 0.1875 -0.3125
vt 0.1875 -0.3125
vt 0.1875 -0.3125
vt 0.1875 -0.3125
vt 0.1875 -0.3125
vt 0.1875 -0.3125
vt 0.1875 -0.3125
vt 0.1875 -0.3125
f 85/85/85 86/86/86 87/87/87
f 86/86/86 88/88/88 87/87/87
f 87/87/87 88/88/88 89/89/89
f 88/88/88 90/90/90 89/89/89
f 89/89/89 90/90/90 91/91/91
f 90/90/90 92/92/92 91/91/91
v 28.44922 10.80078 32.25
v 30.25 11.29688 34.05078
v 28.44922 10.80078 26.22656
v 30.25 11.29688 26.22656
v 28.44922 10.80078 -32.63281
v 30.25 11.29688 -32.63281
v 28.44922 10.80078 -38.53125
v 30.25 11.29688 -39.42969
vn -0.265625 0.9648438 0
vn -0.265625 0.9648438 0
vn -0.265625 0.9648438 0
vn -0.265625 0.9648438 0
vn -0.265625 0.9648438 0
vn -0.265625 0.9648438 0
vn -0.265625 0.9648438 0
vn -0.265625 0.9648438 0
vt 0.1875 -0.3125
vt 0.1875 -0.3125
vt 0.1875 -0.3125
vt 0.1875 -0.3125
vt 0.1875 -0.3125
vt 0.1875 -0.3125
vt 0.1875 -0.3125
vt 0.1875 -0.3125
f 93/93/93 94/94/94 95/95/95
f 94/94/94 96/96/96 95/95/95
f 95/95/95 96/96/96 97/97/97
f 96/96/96 98/98/98 97/97/97
f 97/97/97 98/98/98 99/99/99
f 98/98/98 100/100/100 99/99/99
v 28.44922 10.80078 -38.53125
v 30.25 11.29688 -39.42969
v 21.25 10.80078 -38.53125
v 21.25 11.29688 -39.42969
v -21.22656 10.80078 -38.53125
v -21.22656 11.29688 -39.42969
v -28.42578 10.80078 -38.53125
v -30.22656 11.29688 -39.42969
vn 0 0.8769531 0.4824219
vn 0 0.8769531 0.4824219
vn 0 0.8769531 0.4824219
vn 0 0.8769531 0.4824219
vn 0 0.8769531 0.4824219
vn 0 0.8769531 0.4824219
vn 0 0.8769531 0.4824219
vn 0 0.8769531 0.4824219
vt 0.1875 -0.3125
vt 0.1875 -0.3125
vt 0.1875 -0.3125
vt 0.1875 -0.3125
vt 0.1875 -0.3125
vt 0.1875 -0.3125
vt 0.1875 -0.3125
vt 0.1875 -0.3125
f 101/101/101 102/102/102 103/103/103
f 102/102/102 104/104/104 103/103/103
f 103/103/103 104/104/104 105/105/105
f 104/104/104 106/106/106 105/105/105
f 105/105/105 106/106/106 107/107/107
f 106/106/106 108/108/108 107/107/107
v 30.25 1.800781 34.05078
v 30.25 11.29688 34.05078
v 21.25 1.800781 34.05078
v 21.25 11.29688 34.05078
v -21.22656 1.800781 34.05078
v -21.22656 11.29688 34.05078
v -30.22656 1.800781 34.05078
v -30.22656 11.29688 34.05078
vn 0 0 0.9980469
vn 0 0 0.9980469
vn 0 0 0.9980469
vn 0 0 0.9980469
vn 0 0 0.9980469
vn 0 0 0.9980469
vn 0 0 0.9980469
vn 0 0 0.9980469
vt 0.078125 -0.3125
vt 0.078125 -0.3125
vt 0.078125 -0.3125
vt 0.078125 -0.3125
vt 0.078125 -0.3125
vt 0.078125 -0.3125
vt 0.078125 -0.3125
vt 0.078125 -0.3125
f 109/109/109 110/110/110 111/111/111
f 110/110/110 112/112/112 111/111/111
f 111/111/111 112/112/112 113/113/113
f 112/112/112 114/114/114 113/113/113
f 113/113/113 114/114/114 115/115/115
f 114/114/114 116/116/116 115/115/115
v -28.42578 10.80078 -38.53125
v -30.22656 11.29688 -39.42969
v -28.42578 10.80078 -32.53125
v -30.22656 11.29688 -32.53125
v -28.42578 10.80078 26.27344
v -30.22656 11.29688 26.27344
v -28.42578 10.80078 32.25
v -30.22656 11.29688 34.05078
vn 0.265625 0.9648438 0
vn 0.265625 0.9648438 0
vn 0.265625 0.9648438 0
vn 0.265625 0.9648438 0
vn 0.265625 0.9648438 0
vn 0.265625 0.9648438 0
vn 0.265625 0.9648438 0
vn 0.265625 0.9648438 0
vt 0.1875 -0.3125
vt 0.1875 -0.3125
vt 0.1875 -0.3125
vt 0.1875 -0.3125
vt 0.1875 -0.3125
vt 0.1875 -0.3125
vt 0.1875 -0.3125
vt 0.1875 -0.3125
f 117/117/117 118/118/118 119/119/119
f 118/118/118 120/120/120 119/119/119
f 119/119/119 120/120/120 121/121/121
f 120/120/120 122/122/122 121/121/121
f 121/121/121 122/122/122 123/123/123
f 122/122/122 124/124/124 123/123/123
v -30.22656 11.29688 -39.42969
v -30.22656 1.800781 -39.42969
v -30.22656 11.29688 -32.53125
v -30.22656 1.800781 -32.53125
v -30.22656 11.29688 26.27344
v -30.22656 1.800781 26.27344
v -30.22656 11.29688 34.05078
v -30.22656 1.800781 34.05078
vn -1 0 0
vn -1 0 0
vn -1 0 0
vn -1 0 0
vn -1 0 0
vn -1 0 0
vn -1 0 0
vn -1 0 0
vt 0.078125 -0.3125
vt 0.078125 -0.3125
vt 0.078125 -0.3125
vt 0.078125 -0.3125
vt 0.078125 -0.3125
vt 0.078125 -0.3125
vt 0.078125 -0.3125
vt 0.078125 -0.3125
f 125/125/125 126/126/126 127/127/127
f 126/126/126 128/128/128 127/127/127
f 127/127/127 128/128/128 129/129/129
f 128/128/128 130/130/130 129/129/129
f 129/129/129 130/130/130 131/131/131
f 130/130/130 132/132/132 131/131/131
v 28 90 -4
v 0.203125 90 -4
v 0.203125 90 28
v 28 90 28
v -28.42578 79.94141 32.25
v -21.22656 79.94141 32.25
v -21.23828 86 32.25
v -28.4375 86 32.25
v -28.42578 79.94141 32.25
v -28.42578 79.94141 26.27344
v -28.42578 59 26.27344
v -28.42578 59 32.25
v -28.42578 79.94141 -32.53125
v -28.42578 79.94141 -38.53125
v -28.42578 59 -38.53125
v -28.42578 59 -32.53125
v 28.4375 86 26.22656
v 28.44922 79.94141 26.22656
v 28.44922 79.94141 -32.63281
v 28.4375 86 -32.63281
v 28.44922 79.94141 32.25
v 21.25 79.94141 32.25
v 21.25 59 32.25
v 28.44922 59 32.25
v 28.44922 34 -32.63281
v 28.44922 10.80078 -32.63281
v 28.44922 10.80078 -38.53125
v 28.44922 34 -38.53125
v 28.44922 59 -32.63281
v 28.44922 34 -32.63281
v 28.44922 34 -38.53125
v 28.44922 59 -38.53125
v 28.4375 86 -32.63281
v 28.44922 79.94141 -32.63281
v 28.44922 79.94141 -38.53125
v 28.4375 86 -38.53125
v 28.44922 34 32.25
v 28.44922 10.80078 32.25
v 28.44922 10.80078 26.22656
v 28.44922 34 26.22656
v 28.44922 59 32.25
v 28.44922 34 32.25
v 28.44922 34 26.22656
v 28.44922 59 26.22656
v 28.4375 86 32.25
v 28.44922 79.94141 32.25
v 28.44922 79.94141 26.22656
v 28.4375 86 26.22656
v 30 91 34
v 30 85 34
v 30 85 -40
v 30 91 -40
v -28.4375 86 -32.53125
v -28.42578 79.94141 -32.53125
v -28.42578 79.94141 26.27344
v -28.4375 86 26.27344
v 2.179688 93.19922 -27.09375
v 2.179688 93.19922 -9.992188
v 2.179688 102.1992 -9.992188
v 2.179688 102.1992 -27.09375
v 18.17969 93.19922 -9.992188
v 18.17969 93.19922 -27.09375
v 18.17969 102.1992 -27.09375
v 18.17969 102.1992 -9.992188
v 2.179688 102.1992 -9.992188
v 18.17969 102.1992 -9.992188
v 18.17969 102.1992 -27.09375
v 2.179688 102.1992 -27.09375
v 2.179688 93.19922 -9.992188
v 18.17969 93.19922 -9.992188
v 18.17969 102.1992 -9.992188
v 2.179688 102.1992 -9.992188
v 21.23828 86 32.25
v 21.25 79.94141 32.25
v 28.44922 79.94141 32.25
v 28.4375 86 32.25
v 0.203125 90 -4
v -28 90 -4
v -28 90 28
v 0.203125 90 28
v 21.25 34 32.25
v 21.25 10.80078 32.25
v 28.44922 10.80078 32.25
v 28.44922 34 32.25
v 21.25 59 32.25
v 21.25 34 32.25
v 28.44922 34 32.25
v 28.44922 59 32.25
v 0.203125 90 -38
v 0.203125 90 -4
v 28 90 -4
v 28 90 -38
v -28.42578 59 32.25
v -28.42578 59 26.27344
v -28.42578 34 26.27344
v -28.42578 34 32.25
v -28.42578 59 -32.53125
v -28.42578 59 -38.53125
v -28.42578 34 -38.53125
v -28.42578 34 -32.53125
v -28.42578 59 32.25
v -21.22656 59 32.25
v -21.22656 79.94141 32.25
v -28.42578 79.94141 32.25
v -28.4375 86 32.25
v -28.4375 86 26.27344
v -28.42578 79.94141 26.27344
v -28.42578 79.94141 32.25
v -28.4375 86 -32.53125
v -28.4375 86 -38.53125
v -28.42578 79.94141 -38.53125
v -28.42578 79.94141 -32.53125
v -28.42578 34 26.27344
v -28.42578 10.80078 26.27344
v -28.42578 10.80078 32.25
v -28.42578 34 32.25
v -28.42578 10.80078 -32.53125
v -28.42578 34 -32.53125
v -28.42578 34 -38.53125
v -28.42578 10.80078 -38.53125
v -21.22656 79.94141 32.25
v 21.25 79.94141 32.25
v 21.23828 86 32.25
v -21.23828 86 32.25
v 28.44922 79.94141 -38.53125
v 28.44922 79.94141 -32.63281
v 28.44922 59 -32.63281
v 28.44922 59 -38.53125
v 28.44922 79.94141 26.22656
v 28.44922 79.94141 32.25
v 28.44922 59 32.25
v 28.44922 59 26.22656
v -28.42578 34 32.25
v -21.22656 34 32.25
v -21.22656 59 32.25
v -28.42578 59 32.25
v 23 98 -34
v -23 98 -34
v -23 92 -34
v 23 92 -34
v 23 98 27
v 23 98 -34
v 23 92 -34
v 23 92 27
v -23 98 27
v 23 98 27
v 23 92 27
v -23 92 27
v -23 98 -34
v -23 98 27
v -23 92 27
v -23 92 -34
v -28.42578 10.80078 32.25
v -21.22656 10.80078 32.25
v -21.22656 34 32.25
v -28.42578 34 32.25
v -30 91 34
v 30 91 34
v 30 98 34
v -30 98 34
v -30 91 -40
v -30 91 34
v -30 98 34
v -30 98 -40
v -30 85 34
v 30 85 34
v 30 91 34
v -30 91 34
v -30 91 34
v -30 91 -40
v -30 85 -40
v -30 85 34
v -28 90 -38
v -28 90 -4
v 0.203125 90 -4
v 0.203125 90 -38
v 30 91 34
v 30 91 -40
v 30 98 -40
v 30 98 34
vn 0 0.9980469 0
vn 0 0.9980469 0
vn 0 0.9980469 0
vn 0 0.9980469 0
vn 0 0 0.9980469
vn 0 0 0.9980469
vn 0 0 0.9980469
vn 0 0 0.9980469
vn -1 0 0
vn -1 0 0
vn -1 0 0
vn -1 0 0
vn -1 0 0
vn -1 0 0
vn -1 0 0
vn -1 0 0
vn 0.9980469 0 0
vn 0.9980469 0 0
vn 0.9980469 0 0
vn 0.9980469 0 0
vn 0 0 0.9980469
vn 0 0 0.9980469
vn 0 0 0.9980469
vn 0 0 0.9980469
vn 0.9980469 0 0
vn 0.9980469 0 0
vn 0.9980469 0 0
vn 0.9980469 0 0
vn 0.9980469 0 0
vn 0.9980469 0 0
vn 0.9980469 0 0
vn 0.9980469 0 0
vn 0.9980469 0 0
vn 0.9980469 0 0
vn 0.9980469 0 0
vn 0.9980469 0 0
vn 0.9980469 0 0
vn 0.9980469 0 0
vn 0.9980469 0 0
vn 0.9980469 0 0
vn 0.9980469 0 0
vn 0.9980469 0 0
vn 0.9980469 0 0
vn 0.9980469 0 0
vn 0.9980469 0 0
vn 0.9980469 0 0
vn 0.9980469 0 0
vn 0.9980469 0 0
vn 0.9980469 0 0
vn 0.9980469 0 0
vn 0.9980469 0 0
vn 0.9980469 0 0
vn -1 0 0
vn -1 0 0
vn -1 0 0
vn -1 0 0
vn -1 0 0
vn -1 0 0
vn -1 0 0
vn -1 0 0
vn 0.9980469 0 0
vn 0.9980469 0 0
vn 0.9980469 0 0
vn 0.9980469 0 0
vn 0 0.9980469 0
vn 0 0.9980469 0
vn 0 0.9980469 0
vn 0 0.9980469 0
vn 0 0 0.9980469
vn 0 0 0.9980469
vn 0 0 0.9980469
vn 0 0 0.9980469
vn 0 0 0.9980469
vn 0 0 0.9980469
vn 0 0 0.9980469
vn 0 0 0.9980469
vn 0 0.9980469 0
vn 0 0.9980469 0
vn 0 0.9980469 0
vn 0 0.9980469 0
vn 0 0 0.9980469
vn 0 0 0.9980469
vn 0 0 0.9980469
vn 0 0 0.9980469
vn 0 0 0.9980469
vn 0 0 0.9980469
vn 0 0 0.9980469
vn 0 0 0.9980469
vn 0 0.9980469 0
vn 0 0.9980469 0
vn 0 0.9980469 0
vn 0 0.9980469 0
vn -1 0 0
vn -1 0 0
vn -1 0 0
vn -1 0 0
vn -1 0 0
vn -1 0 0
vn -1 0 0
vn -1 0 0
vn 0 0 0.9980469
vn 0 0 0.9980469
vn 0 0 0.9980469
vn 0 0 0.9980469
vn -1 0 0
vn -1 0 0
vn -1 0 0
vn -1 0 0
vn -1 0 0
vn -1 0 0
vn -1 0 0
vn -1 0 0
vn -1 0 0
vn -1 0 0
vn -1 0 0
vn -1 0 0
vn -1 0 0
vn -1 0 0
vn -1 0 0
vn -1 0 0
vn 0 0 0.9980469
vn 0 0 0.9980469
vn 0 0 0.9980469
vn 0 0 0.9980469
vn 0.9980469 0 0
vn 0.9980469 0 0
vn 0.9980469 0 0
vn 0.9980469 0 0
vn 0.9980469 0 0
vn 0.9980469 0 0
vn 0.9980469 0 0
vn 0.9980469 0 0
vn 0 0 0.9980469
vn 0 0 0.9980469
vn 0 0 0.9980469
vn 0 0 0.9980469
vn 0 0 0.9980469
vn 0 0 0.9980469
vn 0 0 0.9980469
vn 0 0 0.9980469
vn -1 0 0
vn -1 0 0
vn -1 0 0
vn -1 0 0
vn 0 0 -1
vn 0 0 -1
vn 0 0 -1
vn 0 0 -1
vn 0.9980469 0 0
vn 0.9980469 0 0
vn 0.9980469 0 0
vn 0.9980469 0 0
vn 0 0 0.9980469
vn 0 0 0.9980469
vn 0 0 0.9980469
vn 0 0 0.9980469
vn 0 0 0.9980469
vn 0 0 0.9980469
vn 0 0 0.9980469
vn 0 0 0.9980469
vn -1 0 0
vn -1 0 0
vn -1 0 0
vn -1 0 0
vn 0 0 0.9980469
vn 0 0 0.9980469
vn 0 0 0.9980469
vn 0 0 0.9980469
vn -1 0 0
vn -1 0 0
vn -1 0 0
vn -1 0 0
vn 0 0.9980469 0
vn 0 0.9980469 0
vn 0 0.9980469 0
vn 0 0.9980469 0
vn 0.9980469 0 0
vn 0.9980469 0 0
vn 0.9980469 0 0
vn 0.9980469 0 0
vt 0.03125 -0.53125
vt 0.03125 -0.96875
vt 0.46875 -0.96875
vt 0.46875 -0.53125
vt 0.015625 -0.234375
vt 0.125 -0.234375
vt 0.125 -0.15625
vt 0.015625 -0.15625
vt 0.015625 -0.03125
vt 0.125 -0.03125
vt 0.125 -0.109375
vt 0.015625 -0.109375
vt 0.125 -0.03125
vt 0.015625 -0.03125
vt 0.015625 -0.109375
vt 0.125 -0.109375
vt 0.28125 -0.390625
vt 0.28125 -0.484375
vt 0.421875 -0.484375
vt 0.421875 -0.390625
vt 0.015625 -0.03125
vt 0.125 -0.03125
vt 0.125 -0.109375
vt 0.015625 -0.109375
vt 0.125 -0.03125
vt 0.125 -0.109375
vt 0.015625 -0.109375
vt 0.015625 -0.03125
vt 0.125 -0.03125
vt 0.125 -0.109375
vt 0.015625 -0.109375
vt 0.015625 -0.03125
vt 0.125 -0.15625
vt 0.125 -0.234375
vt 0.015625 -0.234375
vt 0.015625 -0.15625
vt 0.015625 -0.03125
vt 0.015625 -0.109375
vt 0.125 -0.109375
vt 0.125 -0.03125
vt 0.015625 -0.03125
vt 0.015625 -0.109375
vt 0.125 -0.109375
vt 0.125 -0.03125
vt 0.015625 -0.15625
vt 0.015625 -0.234375
vt 0.125 -0.234375
vt 0.125 -0.15625
vt -0.734375 -1.140625
vt -0.734375 -1.21875
vt -0.515625 -1.21875
vt -0.515625 -1.140625
vt 0.421875 -0.390625
vt 0.421875 -0.484375
vt 0.28125 -0.484375
vt 0.28125 -0.390625
vt -0.484375 -1.984375
vt -0.015625 -1.984375
vt -0.015625 -1.765625
vt -0.484375 -1.765625
vt -0.484375 -1.984375
vt -0.015625 -1.984375
vt -0.015625 -1.765625
vt -0.484375 -1.765625
vt -0.484375 -1.734375
vt -0.015625 -1.734375
vt -0.015625 -1.265625
vt -0.484375 -1.265625
vt -0.484375 -1.984375
vt -0.015625 -1.984375
vt -0.015625 -1.765625
vt -0.484375 -1.765625
vt 0.125 -0.15625
vt 0.125 -0.234375
vt 0.015625 -0.234375
vt 0.015625 -0.15625
vt 0.03125 -0.53125
vt 0.03125 -0.96875
vt 0.46875 -0.96875
vt 0.46875 -0.53125
vt 0.125 -0.03125
vt 0.125 -0.109375
vt 0.015625 -0.109375
vt 0.015625 -0.03125
vt 0.125 -0.03125
vt 0.125 -0.109375
vt 0.015625 -0.109375
vt 0.015625 -0.03125
vt 0.03125 -0.96875
vt 0.46875 -0.96875
vt 0.46875 -0.53125
vt 0.03125 -0.53125
vt 0.015625 -0.03125
vt 0.125 -0.03125
vt 0.125 -0.109375
vt 0.015625 -0.109375
vt 0.125 -0.03125
vt 0.015625 -0.03125
vt 0.015625 -0.109375
vt 0.125 -0.109375
vt 0.015625 -0.109375
vt 0.125 -0.109375
vt 0.125 -0.03125
vt 0.015625 -0.03125
vt 0.015625 -0.15625
vt 0.125 -0.15625
vt 0.125 -0.234375
vt 0.015625 -0.234375
vt 0.125 -0.15625
vt 0.015625 -0.15625
vt 0.015625 -0.234375
vt 0.125 -0.234375
vt 0.125 -0.03125
vt 0.125 -0.109375
vt 0.015625 -0.109375
vt 0.015625 -0.03125
vt 0.125 -0.109375
vt 0.125 -0.03125
vt 0.015625 -0.03125
vt 0.015625 -0.109375
vt 0.28125 -0.484375
vt 0.421875 -0.484375
vt 0.421875 -0.390625
vt 0.28125 -0.390625
vt 0.015625 -0.03125
vt 0.125 -0.03125
vt 0.125 -0.109375
vt 0.015625 -0.109375
vt 0.125 -0.03125
vt 0.015625 -0.03125
vt 0.015625 -0.109375
vt 0.125 -0.109375
vt 0.015625 -0.109375
vt 0.125 -0.109375
vt 0.125 -0.03125
vt 0.015625 -0.03125
vt -0.515625 -1.140625
vt -0.734375 -1.140625
vt -0.734375 -1.21875
vt -0.515625 -1.21875
vt -0.515625 -1.140625
vt -0.734375 -1.140625
vt -0.734375 -1.21875
vt -0.515625 -1.21875
vt -0.515625 -1.140625
vt -0.734375 -1.140625
vt -0.734375 -1.21875
vt -0.515625 -1.21875
vt -0.734375 -1.21875
vt -0.515625 -1.21875
vt -0.515625 -1.140625
vt -0.734375 -1.140625
vt 0.015625 -0.109375
vt 0.125 -0.109375
vt 0.125 -0.03125
vt 0.015625 -0.03125
vt -0.734375 -1.109375
vt -0.515625 -1.109375
vt -0.515625 -1.015625
vt -0.734375 -1.015625
vt -0.734375 -1.109375
vt -0.515625 -1.109375
vt -0.515625 -1.015625
vt -0.734375 -1.015625
vt -0.734375 -1.21875
vt -0.515625 -1.21875
vt -0.515625 -1.140625
vt -0.734375 -1.140625
vt -0.515625 -1.140625
vt -0.734375 -1.140625
vt -0.734375 -1.21875
vt -0.515625 -1.21875
vt 0.03125 -0.96875
vt 0.46875 -0.96875
vt 0.46875 -0.53125
vt 0.03125 -0.53125
vt -0.515625 -1.015625
vt -0.734375 -1.015625
vt -0.734375 -1.109375
vt -0.515625 -1.109375
f 133/133/133 134/134/134 135/135/135 136/136/136
f 137/137/137 138/138/138 139/139/139 140/140/140
f 141/141/141 142/142/142 143/143/143 144/144/144
f 145/145/145 146/146/146 147/147/147 148/148/148
f 149/149/149 150/150/150 151/151/151 152/152/152
f 153/153/153 154/154/154 155/155/155 156/156/156
f 157/157/157 158/158/158 159/159/159 160/160/160
f 161/161/161 162/162/162 163/163/163 164/164/164
f 165/165/165 166/166/166 167/167/167 168/168/168
f 169/169/169 170/170/170 171/171/171 172/172/172
f 173/173/173 174/174/174 175/175/175 176/176/176
f 177/177/177 178/178/178 179/179/179 180/180/180
f 181/181/181 182/182/182 183/183/183 184/184/184
f 185/185/185 186/186/186 187/187/187 188/188/188
f 189/189/189 190/190/190 191/191/191 192/192/192
f 193/193/193 194/194/194 195/195/195 196/196/196
f 197/197/197 198/198/198 199/199/199 200/200/200
f 201/201/201 202/202/202 203/203/203 204/204/204
f 205/205/205 206/206/206 207/207/207 208/208/208
f 209/209/209 210/210/210 211/211/211 212/212/212
f 213/213/213 214/214/214 215/215/215 216/216/216
f 217/217/217 218/218/218 219/219/219 220/220/220
f 221/221/221 222/222/222 223/223/223 224/224/224
f 225/225/225 226/226/226 227/227/227 228/228/228
f 229/229/229 230/230/230 231/231/231 232/232/232
f 233/233/233 234/234/234 235/235/235 236/236/236
f 237/237/237 238/238/238 239/239/239 240/240/240
f 241/241/241 242/242/242 243/243/243 244/244/244
f 245/245/245 246/246/246 247/247/247 248/248/248
f 249/249/249 250/250/250 251/251/251 252/252/252
f 253/253/253 254/254/254 255/255/255 256/256/256
f 257/257/257 258/258/258 259/259/259 260/260/260
f 261/261/261 262/262/262 263/263/263 264/264/264
f 265/265/265 266/266/266 267/267/267 268/268/268
f 269/269/269 270/270/270 271/271/271 272/272/272
f 273/273/273 274/274/274 275/275/275 276/276/276
f 277/277/277 278/278/278 279/279/279 280/280/280
f 281/281/281 282/282/282 283/283/283 284/284/284
f 285/285/285 286/286/286 287/287/287 288/288/288
f 289/289/289 290/290/290 291/291/291 292/292/292
f 293/293/293 294/294/294 295/295/295 296/296/296
f 297/297/297 298/298/298 299/299/299 300/300/300
f 301/301/301 302/302/302 303/303/303 304/304/304
f 305/305/305 306/306/306 307/307/307 308/308/308
f 309/309/309 310/310/310 311/311/311 312/312/312
