# Created by MKDS Course Modifier
mtllib Jubilife City Building 5.mtl
g polygon0
usemtl c1_b01_4_lm3
v -21 4 21
v 21 4 21
v 21 81 21
v -21 81 21
vn 0 0 0.9980469
vn 0 0 0.9980469
vn 0 0 0.9980469
vn 0 0 0.9980469
vt -2 -3
vt 1 -3
vt 1 0
vt -2 0
f 1/1/1 2/2/2 3/3/3 4/4/4
g polygon1
usemtl h_kage_lm3
v 22 93 -25
v 22 93 -30
v -17 93 -25
v -22 93 -30
v -17 93 18
v -22 93 18
vn 0 0.9980469 0
vn 0 0.9980469 0
vn 0 0.9980469 0
vn 0 0.9980469 0
vn 0 0.9980469 0
vn 0 0.9980469 0
vt 0.5 1
vt 0 1
vt 0.5 0.5
vt 0 0.5
vt 0.5 0
vt 0 0
f 5/5/5 6/6/6 7/7/7
f 6/6/6 8/8/8 7/7/7
f 7/7/7 8/8/8 9/9/9
f 8/8/8 10/10/10 9/9/9
v 36 0.8984375 31
v 36 0.8984375 -35
v 32 0.8984375 31
v 32 0.8984375 -43
v -31.69922 0.8984375 31
v -31.69922 0.8984375 -43
vn 0 0.9980469 0
vn 0 0.9980469 0
vn 0 0.9980469 0
vn 0 0.9980469 0
vn 0 0.9980469 0
vn 0 0.9980469 0
vt 1 0.5
vt 1 1
vt 0.5 0.5
vt 0.5 1
vt 0 0.5
vt 0 1
f 11/11/11 12/12/12 13/13/13
f 12/12/12 14/14/14 13/13/13
f 13/13/13 14/14/14 15/15/15
f 14/14/14 16/16/16 15/15/15
v 36 0.8984375 34.60547
v 36 0.8984375 31
v 32 0.8984375 34.60547
v 32 0.8984375 31
v -27 0.8984375 34.60547
v -31.69922 0.8984375 31
vn 0 0.9980469 0
vn 0 0.9980469 0
vn 0 0.9980469 0
vn 0 0.9980469 0
vn 0 0.9980469 0
vn 0 0.9980469 0
vt 1 0
vt 1 0.5
vt 0.5 0
vt 0.5 0.5
vt 0 0
vt 0 0.5
f 17/17/17 18/18/18 19/19/19
f 18/18/18 20/20/20 19/19/19
f 19/19/19 20/20/20 21/21/21
f 20/20/20 22/22/22 21/21/21
v -13 94 -18
v -13 94 9
v 14 94 9
v 14 94 -18
vn 0 0.9980469 0
vn 0 0.9980469 0
vn 0 0.9980469 0
vn 0 0.9980469 0
vt 0 -1
vt 0.1328125 -0.3320313
vt 1 -0.3984375
vt 0.8671875 -1
f 23/23/23 24/24/24 25/25/25 26/26/26
g polygon2
usemtl c1_b02_1_lm3
v -22 86 23.25391
v -22 86 28
v -22 80 23.25391
v -22 80 28
v -22 57 23.25391
v -22 57 28
v -22 31 23.25391
v -22 31 28
v -22 8 23.25391
v -22 8 28
vn 0.9980469 0 0
vn 0.9980469 0 0
vn 0.9980469 0 0
vn 0.9980469 0 0
vn 0.9980469 0 0
vn 0.9980469 0 0
vn 0.9980469 0 0
vn 0.9980469 0 0
vn 0.9980469 0 0
vn 0.9980469 0 0
vt 0.671875 -0.359375
vt 0.671875 -0.359375
vt 0.671875 -0.359375
vt 0.671875 -0.359375
vt 0.671875 -0.359375
vt 0.671875 -0.359375
vt 0.671875 -0.359375
vt 0.671875 -0.359375
vt 0.671875 -0.359375
vt 0.671875 -0.359375
f 27/27/27 28/28/28 29/29/29
f 28/28/28 30/30/30 29/29/29
f 29/29/29 30/30/30 31/31/31
f 30/30/30 32/32/32 31/31/31
f 31/31/31 32/32/32 33/33/33
f 32/32/32 34/34/34 33/33/33
f 33/33/33 34/34/34 35/35/35
f 34/34/34 36/36/36 35/35/35
v 22 86 28
v 22 86 23.25391
v 22 80 28
v 22 80 23.25391
v 22 57 28
v 22 57 23.25391
v 22 31 28
v 22 31 23.25391
v 22 8 28
v 22 8 23.25391
vn -1 0 0
vn -1 0 0
vn -1 0 0
vn -1 0 0
vn -1 0 0
vn -1 0 0
vn -1 0 0
vn -1 0 0
vn -1 0 0
vn -1 0 0
vt 0.671875 -0.359375
vt 0.671875 -0.359375
vt 0.671875 -0.359375
vt 0.671875 -0.359375
vt 0.671875 -0.359375
vt 0.671875 -0.359375
vt 0.671875 -0.359375
vt 0.671875 -0.359375
vt 0.671875 -0.359375
vt 0.671875 -0.359375
f 37/37/37 38/38/38 39/39/39
f 38/38/38 40/40/40 39/39/39
f 39/39/39 40/40/40 41/41/41
f 40/40/40 42/42/42 41/41/41
f 41/41/41 42/42/42 43/43/43
f 42/42/42 44/44/44 43/43/43
f 43/43/43 44/44/44 45/45/45
f 44/44/44 46/46/46 45/45/45
v 0 8 28
v -22 8 28
v 22 8 28
v 0 8 30
v 29 8 28
v 31 8 30
v 29 8 14
v 31 8 14
vn 0 0.9980469 0
vn 0 0.9980469 0
vn 0 0.9980469 0
vn 0 0.9980469 0
vn 0 0.9980469 0
vn 0 0.9980469 0
vn 0 0.9980469 0
vn 0 0.9980469 0
vt 0.1015625 -0.4140625
vt 0.109375 -0.40625
vt 0.109375 -0.40625
vt 0.109375 -0.40625
vt 0.109375 -0.40625
vt 0.109375 -0.40625
vt 0.109375 -0.40625
vt 0.109375 -0.40625
f 47/47/47 48/48/48 49/49/49
f 48/48/48 50/50/50 49/49/49
f 49/49/49 50/50/50 51/51/51
f 50/50/50 52/52/52 51/51/51
f 51/51/51 52/52/52 53/53/53
f 52/52/52 54/54/54 53/53/53
v 20 98 30
v 31 98 30
v 20 98 25
v 22 98 18
v -20 98 25
v -22 98 18
v -20 98 30
v -31 98 30
vn 0 0.9980469 0
vn 0 0.9980469 0
vn 0 0.9980469 0
vn 0 0.9980469 0
vn 0 0.9980469 0
vn 0 0.9980469 0
vn 0 0.9980469 0
vn 0 0.9980469 0
vt 0.078125 -0.296875
vt 0.078125 -0.296875
vt 0.078125 -0.296875
vt 0.078125 -0.296875
vt 0.078125 -0.296875
vt 0.078125 -0.296875
vt 0.078125 -0.296875
vt 0.078125 -0.296875
f 55/55/55 56/56/56 57/57/57
f 56/56/56 58/58/58 57/57/57
f 57/57/57 58/58/58 59/59/59
f 58/58/58 60/60/60 59/59/59
f 59/59/59 60/60/60 61/61/61
f 60/60/60 62/62/62 61/61/61
v 31 1.800781 -40
v 31 8 -40
v 31 1.800781 14
v 31 8 14
v 31 1.800781 30
v 31 8 30
vn 0.9980469 0 0
vn 0.9980469 0 0
vn 0.9980469 0 0
vn 0.9980469 0 0
vn 0.9980469 0 0
vn 0.9980469 0 0
vt 0.09375 -0.46875
vt 0.09375 -0.46875
vt 0.09375 -0.46875
vt 0.09375 -0.46875
vt 0.09375 -0.46875
vt 0.09375 -0.46875
f 63/63/63 64/64/64 65/65/65
f 64/64/64 66/66/66 65/65/65
f 65/65/65 66/66/66 67/67/67
f 66/66/66 68/68/68 67/67/67
v 22 8 28
v 22 8 23.25391
v 0 8 28
v 0 8 23.25391
v -22 8 28
v -22 8 23.25391
vn 0 0.9980469 0
vn 0 0.9980469 0
vn 0 0.9980469 0
vn 0 0.9980469 0
vn 0 0.9980469 0
vn 0 0.9980469 0
vt 0.015625 -0.453125
vt 0.078125 -0.453125
vt 0.015625 -0.484375
vt 0.078125 -0.484375
vt 0.015625 -0.453125
vt 0.078125 -0.453125
f 69/69/69 70/70/70 71/71/71
f 70/70/70 72/72/72 71/71/71
f 71/71/71 72/72/72 73/73/73
f 72/72/72 74/74/74 73/73/73
v -31 8 30
v -31 1.800781 30
v 0 8 30
v 0 1.800781 30
v 31 8 30
v 31 1.800781 30
vn 0 0 0.9980469
vn 0 0 0.9980469
vn 0 0 0.9980469
vn 0 0 0.9980469
vn 0 0 0.9980469
vn 0 0 0.9980469
vt 0.046875 -0.46875
vt 0.046875 -0.46875
vt 0.046875 -0.46875
vt 0.046875 -0.46875
vt 0.046875 -0.46875
vt 0.046875 -0.46875
f 75/75/75 76/76/76 77/77/77
f 76/76/76 78/78/78 77/77/77
f 77/77/77 78/78/78 79/79/79
f 78/78/78 80/80/80 79/79/79
v -31 1.800781 30
v -31 8 30
v -31 1.800781 14
v -31 8 14
v -31 1.800781 -40
v -31 8 -40
vn -1 0 0
vn -1 0 0
vn -1 0 0
vn -1 0 0
vn -1 0 0
vn -1 0 0
vt 0.09375 -0.46875
vt 0.09375 -0.46875
vt 0.09375 -0.46875
vt 0.09375 -0.46875
vt 0.09375 -0.46875
vt 0.09375 -0.46875
f 81/81/81 82/82/82 83/83/83
f 82/82/82 84/84/84 83/83/83
f 83/83/83 84/84/84 85/85/85
f 84/84/84 86/86/86 85/85/85
v -31 98 30
v -22 98 18
v -31 98 -40
v -22 98 -29.84375
v -19.98828 98 -40
v -19.98828 98 -36
vn 0 0.9980469 0
vn 0 0.9980469 0
vn 0 0.9980469 0
vn 0 0.9980469 0
vn 0 0.9980469 0
vn 0 0.9980469 0
vt 0.078125 -0.296875
vt 0.078125 -0.296875
vt 0.078125 -0.296875
vt 0.078125 -0.296875
vt 0.078125 -0.296875
vt 0.078125 -0.296875
f 87/87/87 88/88/88 89/89/89
f 88/88/88 90/90/90 89/89/89
f 89/89/89 90/90/90 91/91/91
f 90/90/90 92/92/92 91/91/91
v -19.98828 98 -36
v -22 98 -29.84375
v 20 98 -36
v 22 98 -29.84375
v 20 98 -40
v 31 98 -40
vn 0 0.9980469 0
vn 0 0.9980469 0
vn 0 0.9980469 0
vn 0 0.9980469 0
vn 0 0.9980469 0
vn 0 0.9980469 0
vt 0.078125 -0.296875
vt 0.078125 -0.296875
vt 0.078125 -0.296875
vt 0.078125 -0.296875
vt 0.078125 -0.296875
vt 0.078125 -0.296875
f 93/93/93 94/94/94 95/95/95
f 94/94/94 96/96/96 95/95/95
f 95/95/95 96/96/96 97/97/97
f 96/96/96 98/98/98 97/97/97
v -20 85 25
v -20 98 25
v -20 98 30
v -20 85 30
v 20 98 25
v 20 85 25
v 20 85 30
v 20 98 30
v 20 85 25
v 20 98 25
v -20 98 25
v -20 85 25
v -22 80 28
v -29 80 28
v -29 57 28
v -22 57 28
v -22 57 28
v -29 57 28
v -29 31 28
v -22 31 28
v -22 86 28
v -29 86 28
v -29 80 28
v -22 80 28
v -22 31 28
v -29 31 28
v -29 8 28
v -22 8 28
v 31 8 -40
v -31 8 -40
v -29 8 -37
v 29 8 -37
v -20 98 30
v -31 98 30
v -31 85 30
v -20 85 30
v -31 8 14
v -31 8 30
v -29 8 28
v -29 8 14
v 29 80 14
v 29 80 28
v 29 57 28
v 29 57 14
v 29 57 14
v 29 57 28
v 29 31 28
v 29 31 14
v 29 86 14
v 29 86 28
v 29 80 28
v 29 80 14
v 29 31 14
v 29 31 28
v 29 8 28
v 29 8 14
v 24 90 -8
v 0 90 -8
v 0 90 19
v 24 90 19
v -24 90 -8
v 0 90 -8
v 0 90 -33
v -24 90 -33
v 0 90 -33
v 0 90 -8
v 24 90 -8
v 24 90 -33
v -13 95 -18
v -13 95 7
v -13 105 7
v -13 105 -18
v 11 95 7
v 11 95 -18
v 11 105 -18
v 11 105 7
v -13 105 7
v 11 105 7
v 11 105 -18
v -13 105 -18
v -13 95 7
v 11 95 7
v 11 105 7
v -13 105 7
v -24 90 19
v 0 90 19
v 0 90 -8
v -24 90 -8
v -29 80 14
v -29 57 14
v -29 57 28
v -29 80 28
v 29 80 -37
v 29 80 14
v 29 57 14
v 29 57 -37
v -29 80 14
v -29 80 -37
v -29 57 -37
v -29 57 14
v 22 80 28
v 22 57 28
v 29 57 28
v 29 80 28
v 22 80 23.25391
v 0 80 23.25391
v 0 57 23.25391
v 22 57 23.25391
v -22 80 23.25391
v 0 80 23.25391
v 0 86 23.25391
v -22 86 23.25391
v -29 86 14
v -29 80 14
v -29 80 28
v -29 86 28
v -29 31 14
v -29 8 14
v -29 8 28
v -29 31 28
v -29 57 14
v -29 31 14
v -29 31 28
v -29 57 28
v -31 8 -40
v -31 8 14
v -29 8 14
v -29 8 -37
v 29 86 14
v 29 80 14
v 29 80 -37
v 29 86 -37
v 29 31 14
v 29 8 14
v 29 8 -37
v 29 31 -37
v 29 57 14
v 29 31 14
v 29 31 -37
v 29 57 -37
v -29 86 -37
v -29 80 -37
v -29 80 14
v -29 86 14
v -29 31 -37
v -29 8 -37
v -29 8 14
v -29 31 14
v -29 57 -37
v -29 31 -37
v -29 31 14
v -29 57 14
v 22 57 28
v 22 31 28
v 29 31 28
v 29 57 28
v 22 86 28
v 22 80 28
v 29 80 28
v 29 86 28
v 22 31 28
v 22 8 28
v 29 8 28
v 29 31 28
v 0 8 30
v -22 8 28
v -29 8 28
v -31 8 30
v 0 31 23.25391
v -22 31 23.25391
v -22 8 23.25391
v 0 8 23.25391
v 0 57 23.25391
v 0 31 23.25391
v 22 31 23.25391
v 22 57 23.25391
v -22 57 23.25391
v -22 31 23.25391
v 0 31 23.25391
v 0 57 23.25391
v 22 86 23.25391
v 0 86 23.25391
v 0 80 23.25391
v 22 80 23.25391
v 0 57 23.25391
v 0 80 23.25391
v -22 80 23.25391
v -22 57 23.25391
v 31 8 -40
v 29 8 -37
v 29 8 14
v 31 8 14
v 0 31 23.25391
v 0 8 23.25391
v 22 8 23.25391
v 22 31 23.25391
v -22 98 -29.84375
v -22 98 18
v -22 92 18
v -22 92 -29.84375
v 22 98 -29.84375
v -22 98 -29.84375
v -22 92 -29.84375
v 22 92 -29.84375
v 22 98 18
v 22 98 -29.84375
v 22 92 -29.84375
v 22 92 18
v 31 85 30
v 31 85 -40
v 31 98 -40
v 31 98 30
v 20 98 30
v 20 85 30
v 31 85 30
v 31 98 30
v 20 85 -36
v 20 98 -36
v 20 98 -40
v 20 85 -40
v -31 98 30
v -31 98 -40
v -31 85 -40
v -31 85 30
v -19.98828 98 -36
v -20.01172 85 -36
v -20.01172 85 -40
v -19.98828 98 -40
v 22 98 18
v 31 98 30
v 31 98 -40
v 22 98 -29.84375
vn 0.9980469 0 0
vn 0.9980469 0 0
vn 0.9980469 0 0
vn 0.9980469 0 0
vn -1 0 0
vn -1 0 0
vn -1 0 0
vn -1 0 0
vn 0 0 0.9980469
vn 0 0 0.9980469
vn 0 0 0.9980469
vn 0 0 0.9980469
vn 0 0 0.9980469
vn 0 0 0.9980469
vn 0 0 0.9980469
vn 0 0 0.9980469
vn 0 0 0.9980469
vn 0 0 0.9980469
vn 0 0 0.9980469
vn 0 0 0.9980469
vn 0 0 0.9980469
vn 0 0 0.9980469
vn 0 0 0.9980469
vn 0 0 0.9980469
vn 0 0 0.9980469
vn 0 0 0.9980469
vn 0 0 0.9980469
vn 0 0 0.9980469
vn 0 0.9980469 0
vn 0 0.9980469 0
vn 0 0.9980469 0
vn 0 0.9980469 0
vn 0 0 0.9980469
vn 0 0 0.9980469
vn 0 0 0.9980469
vn 0 0 0.9980469
vn 0 0.9980469 0
vn 0 0.9980469 0
vn 0 0.9980469 0
vn 0 0.9980469 0
vn 0.9980469 0 0
vn 0.9980469 0 0
vn 0.9980469 0 0
vn 0.9980469 0 0
vn 0.9980469 0 0
vn 0.9980469 0 0
vn 0.9980469 0 0
vn 0.9980469 0 0
vn 0.9980469 0 0
vn 0.9980469 0 0
vn 0.9980469 0 0
vn 0.9980469 0 0
vn 0.9980469 0 0
vn 0.9980469 0 0
vn 0.9980469 0 0
vn 0.9980469 0 0
vn 0 0.9980469 0
vn 0 0.9980469 0
vn 0 0.9980469 0
vn 0 0.9980469 0
vn 0 0.9980469 0
vn 0 0.9980469 0
vn 0 0.9980469 0
vn 0 0.9980469 0
vn 0 0.9980469 0
vn 0 0.9980469 0
vn 0 0.9980469 0
vn 0 0.9980469 0
vn -1 0 0
vn -1 0 0
vn -1 0 0
vn -1 0 0
vn 0.9980469 0 0
vn 0.9980469 0 0
vn 0.9980469 0 0
vn 0.9980469 0 0
vn 0 0.9980469 0
vn 0 0.9980469 0
vn 0 0.9980469 0
vn 0 0.9980469 0
vn 0 0 0.9980469
vn 0 0 0.9980469
vn 0 0 0.9980469
vn 0 0 0.9980469
vn 0 0.9980469 0
vn 0 0.9980469 0
vn 0 0.9980469 0
vn 0 0.9980469 0
vn -1 0 0
vn -1 0 0
vn -1 0 0
vn -1 0 0
vn 0.9980469 0 0
vn 0.9980469 0 0
vn 0.9980469 0 0
vn 0.9980469 0 0
vn -1 0 0
vn -1 0 0
vn -1 0 0
vn -1 0 0
vn 0 0 0.9980469
vn 0 0 0.9980469
vn 0 0 0.9980469
vn 0 0 0.9980469
vn 0 0 0.9980469
vn 0 0 0.9980469
vn 0 0 0.9980469
vn 0 0 0.9980469
vn 0 0 0.9980469
vn 0 0 0.9980469
vn 0 0 0.9980469
vn 0 0 0.9980469
vn -1 0 0
vn -1 0 0
vn -1 0 0
vn -1 0 0
vn -1 0 0
vn -1 0 0
vn -1 0 0
vn -1 0 0
vn -1 0 0
vn -1 0 0
vn -1 0 0
vn -1 0 0
vn 0 0.9980469 0
vn 0 0.9980469 0
vn 0 0.9980469 0
vn 0 0.9980469 0
vn 0.9980469 0 0
vn 0.9980469 0 0
vn 0.9980469 0 0
vn 0.9980469 0 0
vn 0.9980469 0 0
vn 0.9980469 0 0
vn 0.9980469 0 0
vn 0.9980469 0 0
vn 0.9980469 0 0
vn 0.9980469 0 0
vn 0.9980469 0 0
vn 0.9980469 0 0
vn -1 0 0
vn -1 0 0
vn -1 0 0
vn -1 0 0
vn -1 0 0
vn -1 0 0
vn -1 0 0
vn -1 0 0
vn -1 0 0
vn -1 0 0
vn -1 0 0
vn -1 0 0
vn 0 0 0.9980469
vn 0 0 0.9980469
vn 0 0 0.9980469
vn 0 0 0.9980469
vn 0 0 0.9980469
vn 0 0 0.9980469
vn 0 0 0.9980469
vn 0 0 0.9980469
vn 0 0 0.9980469
vn 0 0 0.9980469
vn 0 0 0.9980469
vn 0 0 0.9980469
vn 0 0.9980469 0
vn 0 0.9980469 0
vn 0 0.9980469 0
vn 0 0.9980469 0
vn 0 0 0.9980469
vn 0 0 0.9980469
vn 0 0 0.9980469
vn 0 0 0.9980469
vn 0 0 0.9980469
vn 0 0 0.9980469
vn 0 0 0.9980469
vn 0 0 0.9980469
vn 0 0 0.9980469
vn 0 0 0.9980469
vn 0 0 0.9980469
vn 0 0 0.9980469
vn 0 0 0.9980469
vn 0 0 0.9980469
vn 0 0 0.9980469
vn 0 0 0.9980469
vn 0 0 0.9980469
vn 0 0 0.9980469
vn 0 0 0.9980469
vn 0 0 0.9980469
vn 0 0.9980469 0
vn 0 0.9980469 0
vn 0 0.9980469 0
vn 0 0.9980469 0
vn 0 0 0.9980469
vn 0 0 0.9980469
vn 0 0 0.9980469
vn 0 0 0.9980469
vn 0.9980469 0 0
vn 0.9980469 0 0
vn 0.9980469 0 0
vn 0.9980469 0 0
vn 0 0 0.9980469
vn 0 0 0.9980469
vn 0 0 0.9980469
vn 0 0 0.9980469
vn -1 0 0
vn -1 0 0
vn -1 0 0
vn -1 0 0
vn 0.9980469 0 0
vn 0.9980469 0 0
vn 0.9980469 0 0
vn 0.9980469 0 0
vn 0 0 0.9980469
vn 0 0 0.9980469
vn 0 0 0.9980469
vn 0 0 0.9980469
vn -1 0 0
vn -1 0 0
vn -1 0 0
vn -1 0 0
vn -1 0 0
vn -1 0 0
vn -1 0 0
vn -1 0 0
vn 0.9980469 0 0
vn 0.9980469 0 0
vn 0.9980469 0 0
vn 0.9980469 0 0
vn 0 0.9980469 0
vn 0 0.9980469 0
vn 0 0.9980469 0
vn 0 0.9980469 0
vt 0.234375 -0.484375
vt 0.234375 -0.265625
vt 0.203125 -0.265625
vt 0.203125 -0.484375
vt 0.234375 -0.265625
vt 0.234375 -0.484375
vt 0.203125 -0.484375
vt 0.203125 -0.265625
vt 0.171875 -0.484375
vt 0.171875 -0.265625
vt 0.140625 -0.265625
vt 0.140625 -0.484375
vt 0.234375 -0.015625
vt 0.015625 -0.015625
vt 0.015625 -0.09375
vt 0.234375 -0.09375
vt 0.234375 -0.015625
vt 0.015625 -0.015625
vt 0.015625 -0.09375
vt 0.234375 -0.09375
vt 0.234375 -0.140625
vt 0.015625 -0.140625
vt 0.015625 -0.234375
vt 0.234375 -0.234375
vt 0.234375 -0.015625
vt 0.015625 -0.015625
vt 0.015625 -0.09375
vt 0.234375 -0.09375
vt 0.109375 -0.40625
vt 0.109375 -0.40625
vt 0.078125 -0.40625
vt 0.109375 -0.40625
vt 0.140625 -0.265625
vt 0.171875 -0.265625
vt 0.171875 -0.484375
vt 0.140625 -0.484375
vt 0.109375 -0.40625
vt 0.109375 -0.40625
vt 0.109375 -0.40625
vt 0.109375 -0.40625
vt 0.234375 -0.171875
vt 0.015625 -0.171875
vt 0.015625 -0.203125
vt 0.234375 -0.203125
vt 0.234375 -0.171875
vt 0.015625 -0.171875
vt 0.015625 -0.203125
vt 0.234375 -0.203125
vt 0.484375 -0.140625
vt 0.265625 -0.140625
vt 0.265625 -0.234375
vt 0.484375 -0.234375
vt 0.234375 -0.171875
vt 0.015625 -0.171875
vt 0.015625 -0.203125
vt 0.234375 -0.203125
vt 0.46875 -0.53125
vt 0.03125 -0.53125
vt 0.03125 -0.96875
vt 0.46875 -0.96875
vt 0.03125 -0.96875
vt 0.46875 -0.96875
vt 0.46875 -0.53125
vt 0.03125 -0.53125
vt 0.03125 -0.53125
vt 0.03125 -0.96875
vt 0.46875 -0.96875
vt 0.46875 -0.53125
vt 0.515625 -0.984375
vt 0.734375 -0.984375
vt 0.734375 -0.828125
vt 0.515625 -0.828125
vt 0.515625 -0.984375
vt 0.734375 -0.984375
vt 0.734375 -0.828125
vt 0.515625 -0.828125
vt 0.28125 -0.109375
vt 0.46875 -0.109375
vt 0.46875 -0.015625
vt 0.28125 -0.015625
vt 0.515625 -0.984375
vt 0.734375 -0.984375
vt 0.734375 -0.828125
vt 0.515625 -0.828125
vt 0.03125 -0.96875
vt 0.46875 -0.96875
vt 0.46875 -0.53125
vt 0.03125 -0.53125
vt 0.234375 -0.171875
vt 0.234375 -0.203125
vt 0.015625 -0.203125
vt 0.015625 -0.171875
vt 0.984375 -0.671875
vt 0.515625 -0.671875
vt 0.515625 -0.796875
vt 0.984375 -0.796875
vt 0.515625 -0.671875
vt 0.984375 -0.671875
vt 0.984375 -0.796875
vt 0.515625 -0.796875
vt 0.234375 -0.015625
vt 0.234375 -0.09375
vt 0.015625 -0.09375
vt 0.015625 -0.015625
vt 0.984375 -0.265625
vt 0.625 -0.265625
vt 0.625 -0.671875
vt 0.984375 -0.671875
vt 0.265625 -0.484375
vt 0.421875 -0.484375
vt 0.421875 -0.390625
vt 0.265625 -0.390625
vt 0.484375 -0.140625
vt 0.484375 -0.234375
vt 0.265625 -0.234375
vt 0.265625 -0.140625
vt 0.234375 -0.171875
vt 0.234375 -0.203125
vt 0.015625 -0.203125
vt 0.015625 -0.171875
vt 0.234375 -0.171875
vt 0.234375 -0.203125
vt 0.015625 -0.203125
vt 0.015625 -0.171875
vt 0.109375 -0.40625
vt 0.046875 -0.40625
vt 0.046875 -0.40625
vt 0.109375 -0.40625
vt 0.265625 -0.390625
vt 0.265625 -0.484375
vt 0.421875 -0.484375
vt 0.421875 -0.390625
vt 0.515625 -0.671875
vt 0.515625 -0.796875
vt 0.984375 -0.796875
vt 0.984375 -0.671875
vt 0.515625 -0.671875
vt 0.515625 -0.796875
vt 0.984375 -0.796875
vt 0.984375 -0.671875
vt 0.421875 -0.390625
vt 0.421875 -0.484375
vt 0.265625 -0.484375
vt 0.265625 -0.390625
vt 0.984375 -0.671875
vt 0.984375 -0.796875
vt 0.515625 -0.796875
vt 0.515625 -0.671875
vt 0.984375 -0.671875
vt 0.984375 -0.796875
vt 0.515625 -0.796875
vt 0.515625 -0.671875
vt 0.234375 -0.015625
vt 0.234375 -0.09375
vt 0.015625 -0.09375
vt 0.015625 -0.015625
vt 0.234375 -0.140625
vt 0.234375 -0.234375
vt 0.015625 -0.234375
vt 0.015625 -0.140625
vt 0.234375 -0.015625
vt 0.234375 -0.09375
vt 0.015625 -0.09375
vt 0.015625 -0.015625
vt 0.109375 -0.40625
vt 0.078125 -0.40625
vt 0.078125 -0.421875
vt 0.109375 -0.421875
vt 0.875 -0.265625
vt 0.515625 -0.265625
vt 0.515625 -0.671875
vt 0.875 -0.671875
vt 0.625 -0.265625
vt 0.625 -0.671875
vt 0.984375 -0.671875
vt 0.984375 -0.265625
vt 0.515625 -0.265625
vt 0.515625 -0.671875
vt 0.875 -0.671875
vt 0.875 -0.265625
vt 0.421875 -0.390625
vt 0.265625 -0.390625
vt 0.265625 -0.484375
vt 0.421875 -0.484375
vt 0.875 -0.671875
vt 0.875 -0.265625
vt 0.515625 -0.265625
vt 0.515625 -0.671875
vt 0.078125 -0.40625
vt 0.046875 -0.40625
vt 0.046875 -0.40625
vt 0.046875 -0.40625
vt 0.625 -0.265625
vt 0.625 -0.671875
vt 0.984375 -0.671875
vt 0.984375 -0.265625
vt 0.21875 -0.453125
vt 0.21875 -0.453125
vt 0.21875 -0.453125
vt 0.21875 -0.453125
vt 0.21875 -0.453125
vt 0.21875 -0.453125
vt 0.21875 -0.453125
vt 0.21875 -0.453125
vt 0.21875 -0.453125
vt 0.21875 -0.453125
vt 0.21875 -0.453125
vt 0.21875 -0.453125
vt 0.203125 -0.484375
vt 0.234375 -0.484375
vt 0.234375 -0.265625
vt 0.203125 -0.265625
vt 0.171875 -0.265625
vt 0.171875 -0.484375
vt 0.140625 -0.484375
vt 0.140625 -0.265625
vt 0.234375 -0.484375
vt 0.234375 -0.265625
vt 0.203125 -0.265625
vt 0.203125 -0.484375
vt 0.234375 -0.265625
vt 0.234375 -0.265625
vt 0.234375 -0.484375
vt 0.234375 -0.484375
vt 0.203125 -0.265625
vt 0.203125 -0.484375
vt 0.234375 -0.484375
vt 0.234375 -0.265625
vt 0.078125 -0.296875
vt 0.078125 -0.296875
vt 0.078125 -0.296875
vt 0.078125 -0.296875
f 99/99/99 100/100/100 101/101/101 102/102/102
f 103/103/103 104/104/104 105/105/105 106/106/106
f 107/107/107 108/108/108 109/109/109 110/110/110
f 111/111/111 112/112/112 113/113/113 114/114/114
f 115/115/115 116/116/116 117/117/117 118/118/118
f 119/119/119 120/120/120 121/121/121 122/122/122
f 123/123/123 124/124/124 125/125/125 126/126/126
f 127/127/127 128/128/128 129/129/129 130/130/130
f 131/131/131 132/132/132 133/133/133 134/134/134
f 135/135/135 136/136/136 137/137/137 138/138/138
f 139/139/139 140/140/140 141/141/141 142/142/142
f 143/143/143 144/144/144 145/145/145 146/146/146
f 147/147/147 148/148/148 149/149/149 150/150/150
f 151/151/151 152/152/152 153/153/153 154/154/154
f 155/155/155 156/156/156 157/157/157 158/158/158
f 159/159/159 160/160/160 161/161/161 162/162/162
f 163/163/163 164/164/164 165/165/165 166/166/166
f 167/167/167 168/168/168 169/169/169 170/170/170
f 171/171/171 172/172/172 173/173/173 174/174/174
f 175/175/175 176/176/176 177/177/177 178/178/178
f 179/179/179 180/180/180 181/181/181 182/182/182
f 183/183/183 184/184/184 185/185/185 186/186/186
f 187/187/187 188/188/188 189/189/189 190/190/190
f 191/191/191 192/192/192 193/193/193 194/194/194
f 195/195/195 196/196/196 197/197/197 198/198/198
f 199/199/199 200/200/200 201/201/201 202/202/202
f 203/203/203 204/204/204 205/205/205 206/206/206
f 207/207/207 208/208/208 209/209/209 210/210/210
f 211/211/211 212/212/212 213/213/213 214/214/214
f 215/215/215 216/216/216 217/217/217 218/218/218
f 219/219/219 220/220/220 221/221/221 222/222/222
f 223/223/223 224/224/224 225/225/225 226/226/226
f 227/227/227 228/228/228 229/229/229 230/230/230
f 231/231/231 232/232/232 233/233/233 234/234/234
f 235/235/235 236/236/236 237/237/237 238/238/238
f 239/239/239 240/240/240 241/241/241 242/242/242
f 243/243/243 244/244/244 245/245/245 246/246/246
f 247/247/247 248/248/248 249/249/249 250/250/250
f 251/251/251 252/252/252 253/253/253 254/254/254
f 255/255/255 256/256/256 257/257/257 258/258/258
f 259/259/259 260/260/260 261/261/261 262/262/262
f 263/263/263 264/264/264 265/265/265 266/266/266
f 267/267/267 268/268/268 269/269/269 270/270/270
f 271/271/271 272/272/272 273/273/273 274/274/274
f 275/275/275 276/276/276 277/277/277 278/278/278
f 279/279/279 280/280/280 281/281/281 282/282/282
f 283/283/283 284/284/284 285/285/285 286/286/286
f 287/287/287 288/288/288 289/289/289 290/290/290
f 291/291/291 292/292/292 293/293/293 294/294/294
f 295/295/295 296/296/296 297/297/297 298/298/298
f 299/299/299 300/300/300 301/301/301 302/302/302
f 303/303/303 304/304/304 305/305/305 306/306/306
f 307/307/307 308/308/308 309/309/309 310/310/310
f 311/311/311 312/312/312 313/313/313 314/314/314
f 315/315/315 316/316/316 317/317/317 318/318/318
f 319/319/319 320/320/320 321/321/321 322/322/322
f 323/323/323 324/324/324 325/325/325 326/326/326
f 327/327/327 328/328/328 329/329/329 330/330/330
